<?xml version="1.0" encoding="UTF-8" standalone="no"?>
<!-- Created with Inkscape (http://www.inkscape.org/) -->

<svg
   xmlns:osb="http://www.openswatchbook.org/uri/2009/osb"
   xmlns:dc="http://purl.org/dc/elements/1.1/"
   xmlns:cc="http://creativecommons.org/ns#"
   xmlns:rdf="http://www.w3.org/1999/02/22-rdf-syntax-ns#"
   xmlns:svg="http://www.w3.org/2000/svg"
   xmlns="http://www.w3.org/2000/svg"
   xmlns:xlink="http://www.w3.org/1999/xlink"
   xmlns:sodipodi="http://sodipodi.sourceforge.net/DTD/sodipodi-0.dtd"
   xmlns:inkscape="http://www.inkscape.org/namespaces/inkscape"
   width="15mm"
   height="21.25mm"
   viewBox="0 0 15 21.25"
   version="1.1"
   id="svg3739"
   inkscape:version="0.91 r13725"
   sodipodi:docname="logo2.svg">
  <defs
     id="defs3733">
    <linearGradient
       inkscape:collect="always"
       id="linearGradient4729">
      <stop
         style="stop-color:#00ff00;stop-opacity:1"
         offset="0"
         id="stop4723" />
      <stop
         id="stop4725"
         offset="0.48735008"
         style="stop-color:#7e00fc;stop-opacity:0.99215686" />
      <stop
         style="stop-color:#fc0000;stop-opacity:0.99004978"
         offset="1"
         id="stop4727" />
    </linearGradient>
    <linearGradient
       id="linearGradient4718"
       inkscape:collect="always">
      <stop
         id="stop4712"
         offset="0"
         style="stop-color:#00ff00;stop-opacity:1" />
      <stop
         style="stop-color:#7e00fc;stop-opacity:0.99215686"
         offset="0.45519513"
         id="stop4714" />
      <stop
         id="stop4716"
         offset="1"
         style="stop-color:#fc0000;stop-opacity:0.99004978" />
    </linearGradient>
    <linearGradient
       id="linearGradient6016"
       osb:paint="solid">
      <stop
         style="stop-color:#000000;stop-opacity:1;"
         offset="0"
         id="stop6014" />
    </linearGradient>
    <linearGradient
       id="linearGradient4552"
       osb:paint="solid">
      <stop
         style="stop-color:#000000;stop-opacity:1;"
         offset="0"
         id="stop4550" />
    </linearGradient>
    <linearGradient
       inkscape:collect="always"
       xlink:href="#linearGradient4718"
       id="linearGradient4571"
       x1="13.985172"
       y1="139.03008"
       x2="76.682404"
       y2="139.28696"
       gradientUnits="userSpaceOnUse"
       gradientTransform="matrix(-3.7795276,0,0,3.7795276,555.73686,-48.559049)" />
    <linearGradient
       inkscape:collect="always"
       xlink:href="#linearGradient4729"
       id="linearGradient4721"
       gradientUnits="userSpaceOnUse"
       gradientTransform="matrix(-0.25000001,0,0,0.24999996,89.423958,154.881)"
       x1="-32.508698"
       y1="139.80069"
       x2="76.682404"
       y2="139.28696" />
    <filter
       style="color-interpolation-filters:sRGB"
       x="-0.25"
       width="1.5"
       y="-0.25"
       height="1.5"
       inkscape:menu-tooltip="Convert pictures to thick jelly"
       inkscape:menu="Bumps"
       inkscape:label="Jelly Bump"
       id="filter4780">
      <feFlood
         flood-color="rgb(193,255,255)"
         flood-opacity="0.5"
         result="result13"
         id="feFlood4756" />
      <feTurbulence
         baseFrequency="0.015"
         numOctaves="2"
         type="fractalNoise"
         result="result7"
         seed="0"
         id="feTurbulence4758" />
      <feComposite
         k4="0"
         in="result7"
         operator="arithmetic"
         result="result6"
         in2="SourceGraphic"
         k2="0.5"
         k3="1"
         id="feComposite4760"
         k1="0" />
      <feGaussianBlur
         stdDeviation="1.5"
         result="result11"
         in="result6"
         id="feGaussianBlur4762" />
      <feDisplacementMap
         result="result4"
         scale="62"
         yChannelSelector="G"
         xChannelSelector="A"
         in="result7"
         in2="result11"
         id="feDisplacementMap4764" />
      <feComposite
         in="SourceGraphic"
         operator="in"
         result="result2"
         in2="result4"
         id="feComposite4766" />
      <feSpecularLighting
         lighting-color="#f5e6c3"
         result="result12"
         surfaceScale="15"
         specularExponent="5"
         id="feSpecularLighting4770">
        <feDistantLight
           azimuth="225"
           elevation="35"
           id="feDistantLight4768" />
      </feSpecularLighting>
      <feMerge
         result="result14"
         id="feMerge4776">
        <feMergeNode
           in="result13"
           id="feMergeNode4772" />
        <feMergeNode
           in="result12"
           id="feMergeNode4774" />
      </feMerge>
      <feComposite
         in2="SourceGraphic"
         operator="in"
         in="result14"
         id="feComposite4778" />
    </filter>
  </defs>
  <sodipodi:namedview
     id="base"
     pagecolor="#ffffff"
     bordercolor="#666666"
     borderopacity="1.0"
     inkscape:pageopacity="0.0"
     inkscape:pageshadow="2"
     inkscape:zoom="1.4566673"
     inkscape:cx="58.949861"
     inkscape:cy="133.85479"
     inkscape:document-units="mm"
     inkscape:current-layer="g4752"
     showgrid="false"
     inkscape:snap-center="false"
     inkscape:window-width="1366"
     inkscape:window-height="704"
     inkscape:window-x="0"
     inkscape:window-y="27"
     inkscape:window-maximized="1" />
  <metadata
     id="metadata3736">
    <rdf:RDF>
      <cc:Work
         rdf:about="">
        <dc:format>image/svg+xml</dc:format>
        <dc:type
           rdf:resource="http://purl.org/dc/dcmitype/StillImage" />
        <dc:title></dc:title>
      </cc:Work>
    </rdf:RDF>
  </metadata>
  <g
     inkscape:label="Layer 1"
     inkscape:groupmode="layer"
     id="layer1"
     transform="translate(0,-275.75)">
    <flowRoot
       xml:space="preserve"
       id="flowRoot6081"
       style="font-style:normal;font-weight:normal;font-size:8px;line-height:1.25;font-family:sans-serif;letter-spacing:0px;word-spacing:0px;fill:#000000;fill-opacity:1;stroke:none"><flowRegion
         id="flowRegion6083"
         style="font-size:8px"><rect
           id="rect6085"
           width="128.1631"
           height="44.194176"
           x="33.698059"
           y="454.08279"
           style="font-size:8px" /></flowRegion><flowPara
         id="flowPara6087" /></flowRoot>    <flowRoot
       xml:space="preserve"
       id="flowRoot6089"
       style="font-style:normal;font-weight:normal;font-size:8px;line-height:1.25;font-family:sans-serif;letter-spacing:0px;word-spacing:0px;fill:#000000;fill-opacity:1;stroke:none"><flowRegion
         id="flowRegion6091"
         style="font-size:8px"><rect
           id="rect6093"
           width="137.55437"
           height="54.690289"
           x="56.899998"
           y="443.03427"
           style="font-size:8px" /></flowRegion><flowPara
         id="flowPara6095" /></flowRoot>    <flowRoot
       xml:space="preserve"
       id="flowRoot6145"
       style="font-style:normal;font-weight:normal;font-size:40px;line-height:1.25;font-family:sans-serif;letter-spacing:0px;word-spacing:0px;fill:#000000;fill-opacity:1;stroke:none"><flowRegion
         id="flowRegion6147"><rect
           id="rect6149"
           width="73.785027"
           height="483.48608"
           x="444.65186"
           y="319.62213" /></flowRegion><flowPara
         id="flowPara6151" /></flowRoot>    <flowRoot
       xml:space="preserve"
       id="flowRoot6153"
       style="font-style:normal;font-weight:normal;font-size:40px;line-height:1.25;font-family:sans-serif;letter-spacing:0px;word-spacing:0px;fill:#000000;fill-opacity:1;stroke:none"><flowRegion
         id="flowRegion6155"><rect
           id="rect6157"
           width="44.659355"
           height="441.73929"
           x="440.76843"
           y="313.797" /></flowRegion><flowPara
         id="flowPara6159" /></flowRoot>    <g
       id="g4752"
       transform="matrix(0.51817323,0,0,0.50945449,-36.333786,189.96894)">
      <path
         id="path6059"
         d="m 81.230876,168.78225 0.577485,6.83408 0.127382,0 c 0.49266,0 1.319288,0.0494 1.762295,0 0.261373,-0.0292 0.513778,-0.0965 0.76804,-0.15193 0.01675,0.007 0.03545,0.0134 0.05465,0.0203 -0.123093,0.0644 -0.217723,0.13164 -0.117823,0.13164 0.0864,0 0.220535,-0.0264 0.352435,-0.0606 0.131898,0.0342 0.26604,0.0606 0.352433,0.0606 0.0999,0 0.0053,-0.0672 -0.117823,-0.13164 0.01923,-0.007 0.03789,-0.0137 0.05465,-0.0203 0.254262,0.0554 0.506667,0.1228 0.768037,0.15193 0.443015,0.0494 1.269505,0 1.76217,0 l 0.12738,0 0.577485,-6.83408 c -0.469915,0.0786 -0.93981,0.15722 -1.409735,0.23577 -0.11748,0.0786 -0.20383,0.18595 -0.35243,0.23565 -0.105075,0.0351 -0.247355,-0.0351 -0.352435,0 -0.148605,0.0497 -0.20383,0.18596 -0.352435,0.23564 -0.105075,0.0352 -0.26936,-0.0555 -0.35243,0 -0.08307,0.0555 0.05253,0.16539 0,0.23565 -0.0743,0.0994 -0.234955,0.1571 -0.352432,0.23564 0,0.15711 0.105077,0.33078 0,0.47129 -0.05254,0.0703 -0.26936,-0.0555 -0.352433,0 -0.08307,-0.0555 -0.299897,0.0703 -0.352435,0 -0.105077,-0.14051 0,-0.31418 0,-0.47129 -0.11748,-0.0785 -0.278137,-0.13628 -0.352432,-0.23564 -0.05254,-0.0703 0.08307,-0.18011 0,-0.23565 -0.08307,-0.0555 -0.247353,0.0352 -0.352433,0 -0.148602,-0.0497 -0.203957,-0.18597 -0.352562,-0.23564 -0.105078,-0.0351 -0.247355,0.0351 -0.352435,0 -0.148603,-0.0497 -0.234955,-0.1571 -0.352433,-0.23565 -0.469922,-0.0786 -0.939812,-0.15721 -1.409732,-0.23577 z m 6.471307,6.83408 -2.946845,34.87719 c 1.07462,0 0.0048,-0.23895 0.352433,-0.47142 0.729202,-0.48758 -0.02853,0.7451 0.704862,-0.23564 0.10508,-0.14052 -0.105075,-0.33078 0,-0.47129 0.21147,-0.28279 0.84584,-0.42414 1.0573,-0.70694 0.06988,-0.0934 -0.07205,-0.65874 0,-0.70693 0.08307,-0.0555 0.269365,0.0555 0.352435,0 0.08307,-0.0555 -0.06516,-0.17041 0,-0.23577 0.18432,-0.18486 0.52055,-0.28643 0.70487,-0.47129 0.06516,-0.0654 -0.08308,-0.18011 0,-0.23565 0.08307,-0.0555 0.299895,0.0703 0.35243,0 0.10508,-0.14052 -0.0743,-0.32225 0,-0.47128 0.05254,-0.1054 0.23495,-0.1571 0.352435,-0.23565 0.117475,0 0.300025,0.0703 0.35256,0 0.10508,-0.14052 -0.05698,-0.31889 0,-0.47129 0.06372,-0.1704 0.269365,-0.30465 0.352435,-0.47129 0.03715,-0.0745 -0.08307,-0.18022 0,-0.23577 0.08307,-0.0555 0.269365,0.0556 0.35243,0 0.404985,-0.27079 0.352435,-0.41672 0.352435,-0.70693 0,-0.0785 -0.03715,-0.16112 0,-0.23565 0.166145,-0.33327 0.538725,-0.6093 0.70487,-0.94257 0.0743,-0.14905 -0.10508,-0.33077 0,-0.47129 0.0743,-0.0994 0.299895,-0.13039 0.35243,-0.23578 0.111455,-0.22356 -0.111455,-0.48336 0,-0.70693 0.08307,-0.16664 0.269365,-0.30466 0.352435,-0.47129 0.03715,-0.0745 -0.08307,-0.18005 0,-0.23565 0.08307,-0.0555 0.299895,0.0703 0.35243,0 0.10508,-0.14052 0,-0.31418 0,-0.47128 0,-0.0786 -0.08307,-0.1801 0,-0.23565 0.08307,-0.0555 0.2999,0.0703 0.352435,0 0.115295,-0.15418 -0.07307,-0.9829 0,-1.17835 0.19105,-0.51096 0.86625,-0.66726 1.0573,-1.17822 0.06931,-0.18538 0,-1.16894 0,-1.414 0,-0.0786 -0.05254,-0.16538 0,-0.23564 0.0743,-0.0994 0.278135,-0.13628 0.352435,-0.23565 0.105075,-0.14051 -0.10508,-0.33077 0,-0.47129 0.0743,-0.0994 0.278135,-0.13629 0.35243,-0.23564 0.05253,-0.0703 -0.03715,-0.16113 0,-0.23565 0.08307,-0.16663 0.269365,-0.30478 0.352435,-0.47142 0.03715,-0.0745 -0.03715,-0.16111 0,-0.23564 0.08307,-0.16663 0.269495,-0.30466 0.352565,-0.47129 0.08273,-0.16597 -0.09459,-0.87934 0,-0.94258 0.08307,-0.0555 0.269365,0.0555 0.35243,0 0.166145,-0.11109 -0.105075,-0.33077 0,-0.47129 0.148605,-0.19872 0.556265,-0.27269 0.704865,-0.47141 0.111175,-0.14866 -0.11117,-1.02956 0,-1.17823 0.0743,-0.0994 0.27814,-0.13627 0.352435,-0.23564 0.05254,-0.0703 -0.08307,-0.1801 0,-0.23565 0.08307,-0.0555 0.269365,0.0555 0.352435,0 0.08481,-0.0567 -0.08481,-0.88596 0,-0.9427 0.08307,-0.0555 0.26936,0.0556 0.35243,0 0.0142,-0.009 0,-0.85604 0,-0.94258 l 0,-0.23565 c 0,-0.0786 -0.08307,-0.18004 0,-0.23564 0.08307,-0.0555 0.26937,0.0556 0.352435,0 0.08307,-0.0555 -0.03715,-0.16111 0,-0.23564 0.08307,-0.16663 0.269365,-0.30467 0.352435,-0.47129 0.0743,-0.14905 -0.10508,-0.33091 0,-0.47142 0.0743,-0.0994 0.299895,-0.13026 0.35243,-0.23565 0.124835,-0.25041 -0.124835,-0.69217 0,-0.94257 0.08307,-0.16664 0.269365,-0.30465 0.352435,-0.47129 0.0743,-0.14904 -0.105075,-0.33077 0,-0.47129 0.0743,-0.0994 0.27814,-0.1363 0.352435,-0.23565 0.05254,-0.0703 -0.08307,-0.18024 0,-0.23577 0.08307,-0.0555 0.26936,0.0555 0.35243,0 0.07205,-0.0482 -0.06988,-0.61349 0,-0.70693 0.0743,-0.0994 0.27814,-0.13628 0.352435,-0.23565 0.05363,-0.0717 0,-0.6008 0,-0.70693 l 0,-1.64964 0,-5.65573 0,-4.94879 c 0,-0.0865 0.0142,-0.93313 0,-0.94258 -0.08307,-0.0555 -0.234955,0 -0.352435,0 -1.138955,0 -0.522245,0.3406 -0.704865,0.70694 -0.21337,0.42799 -0.30162,0.43731 -0.704865,0.70693 -0.11748,0.0786 -0.27814,0.13628 -0.352435,0.23564 -0.105075,0.14053 0.10508,0.33091 0,0.47142 -0.0743,0.0994 -0.27814,0.1363 -0.352435,0.23565 -0.05253,0.0703 0.05254,0.16538 0,0.23564 -0.0743,0.0994 -0.278135,0.13629 -0.35243,0.23565 -0.05253,0.0702 0.05254,0.16538 0,0.23564 -0.0743,0.0994 -0.278135,0.13628 -0.352435,0.23565 -0.10508,0.14051 0.10508,0.33077 0,0.47128 -0.0743,0.0994 -0.23495,0.1571 -0.352435,0.23565 -0.117475,0.0786 -0.23495,0.15709 -0.35243,0.23564 -0.11748,0.0785 -0.278135,0.13641 -0.352435,0.23578 -0.05254,0.0702 0.08307,0.18011 0,0.23564 -0.08307,0.0556 -0.24735,-0.0352 -0.35243,0 -0.1486,0.0497 -0.20396,0.18592 -0.352565,0.23565 -0.10508,0.0352 -0.269365,-0.0555 -0.352435,0 -0.08307,0.0555 0.08307,0.18011 0,0.23564 -1.375485,0.91971 -0.18925,-0.0546 -1.0573,0.23564 -0.297205,0.0994 -0.40766,0.37194 -0.704865,0.47129 -0.479665,0.16037 -0.416135,0.056 -0.325175,-0.0256 -0.06836,0.0496 -0.172215,0.1225 -0.37969,0.26123 -0.10508,0.0351 -0.234955,0 -0.352435,0 l -0.35243,0 -1.409735,0 -0.704995,0 -0.352435,0 c 0,0.0786 -0.23495,0 -0.35243,0 z m 0.225055,0 0.35243,0 c 0,-0.0786 -0.46991,0 -0.35243,0 z m 3.90415,-0.26123 c 0.138655,-0.10045 0.07081,-0.0635 0,0 z m -7.07605,35.13842 -2.946977,-34.87719 -0.225053,0 c -0.11748,0 -0.352432,0.0786 -0.352432,0 l -0.352433,0 -0.352434,0 -1.762167,0 -0.352432,0 c -0.117483,0 -0.247358,0.0351 -0.352435,0 -0.207635,-0.13884 -0.311495,-0.21185 -0.379823,-0.26136 0.09098,0.0816 0.15454,0.18609 -0.325172,0.0257 -0.297203,-0.0994 -0.407664,-0.37193 -0.704867,-0.47129 -0.868047,-0.2902 0.318188,0.68407 -1.0573,-0.23564 -0.08307,-0.0555 0.08307,-0.1801 0,-0.23564 -0.08307,-0.0555 -0.247355,0.0352 -0.352432,0 -0.148603,-0.0497 -0.203834,-0.18597 -0.352434,-0.23565 -0.10508,-0.0351 -0.26936,0.0556 -0.352433,0 -0.08307,-0.0555 0.05254,-0.16552 0,-0.23577 -0.0743,-0.0994 -0.234956,-0.1571 -0.352433,-0.23565 -0.11748,-0.0786 -0.234954,-0.15709 -0.352433,-0.23564 -0.117481,-0.0785 -0.278131,-0.13628 -0.352434,-0.23565 -0.105077,-0.14051 0.10508,-0.33077 0,-0.47128 -0.0743,-0.0994 -0.278133,-0.13629 -0.352433,-0.23565 -0.05254,-0.0703 0.05254,-0.16539 0,-0.23564 -0.0743,-0.0994 -0.278133,-0.13629 -0.352433,-0.23565 -0.05254,-0.0703 0.05254,-0.16537 0,-0.23564 -0.0743,-0.0993 -0.278131,-0.13628 -0.352433,-0.23565 -0.105076,-0.14051 0.10508,-0.33089 0,-0.47142 -0.0743,-0.0994 -0.235083,-0.15709 -0.352563,-0.23564 -0.403247,-0.26962 -0.491493,-0.27894 -0.704866,-0.70693 -0.182623,-0.36634 0.434091,-0.70694 -0.704866,-0.70694 -0.11748,0 -0.269364,-0.0555 -0.352433,0 -0.01417,0.009 0,0.85604 0,0.94258 l 0,4.94879 0,5.65573 0,1.64964 c 0,0.10613 -0.05363,0.63522 0,0.70693 0.07429,0.0994 0.278133,0.13629 0.352433,0.23565 0.06987,0.0934 -0.07206,0.65875 0,0.70693 0.08307,0.0555 0.269363,-0.0555 0.352433,0 0.08307,0.0555 -0.05254,0.16551 0,0.23577 0.0743,0.0994 0.278133,0.13629 0.352433,0.23565 0.105077,0.14052 -0.0743,0.32225 0,0.47129 0.08307,0.16664 0.269366,0.30465 0.352433,0.47129 0.124837,0.2504 -0.124832,0.69216 0,0.94257 0.05253,0.10539 0.278133,0.13629 0.352433,0.23565 0.10508,0.14051 -0.0743,0.32237 0,0.47142 0.08307,0.16662 0.269495,0.30466 0.352563,0.47129 0.03715,0.0745 -0.08307,0.1801 0,0.23564 0.08307,0.0556 0.269363,-0.0555 0.352433,0 0.08307,0.0556 0,0.15709 0,0.23564 l 0,0.23565 c 0,0.0865 -0.0142,0.9331 0,0.94258 0.08307,0.0556 0.269363,-0.0555 0.352433,0 0.08481,0.0567 -0.08481,0.886 0,0.9427 0.08307,0.0555 0.269363,-0.0555 0.352433,0 0.08307,0.0555 -0.05254,0.1654 0,0.23565 0.0743,0.0994 0.278133,0.13627 0.352434,0.23564 0.111172,0.14867 -0.111173,1.02957 0,1.17823 0.148602,0.19872 0.556264,0.27269 0.704866,0.47141 0.105078,0.14052 -0.166142,0.3602 0,0.47129 0.08307,0.0555 0.269363,-0.0555 0.352433,0 0.09458,0.0632 -0.08274,0.77661 0,0.94258 0.08307,0.16663 0.269364,0.30466 0.352434,0.47129 0.03715,0.0745 -0.03716,0.16112 0,0.23564 0.08307,0.16664 0.269363,0.30479 0.352432,0.47142 0.03715,0.0745 -0.05254,0.16538 0,0.23565 0.0743,0.0994 0.278134,0.13628 0.352434,0.23564 0.105077,0.14052 -0.105077,0.33078 0,0.47129 0.0743,0.0994 0.278136,0.13629 0.352432,0.23565 0.05254,0.0703 0,0.15707 0,0.23564 0,0.24506 -0.06931,1.22862 0,1.414 0.191051,0.51096 0.866253,0.66726 1.057301,1.17822 0.07308,0.19545 -0.115293,1.02417 0,1.17835 0.05254,0.0703 0.269365,-0.0555 0.352432,0 0.08307,0.0556 0,0.15709 0,0.23565 0,0.1571 -0.105074,0.33076 0,0.47128 0.05254,0.0703 0.269493,-0.0555 0.352563,0 0.08307,0.0556 -0.03715,0.16113 0,0.23565 0.08307,0.16663 0.269362,0.30465 0.352435,0.47129 0.11145,0.22357 -0.111458,0.48337 0,0.70693 0.05254,0.10539 0.278132,0.13642 0.352432,0.23578 0.105078,0.14052 -0.07429,0.32224 0,0.47129 0.166143,0.33327 0.53872,0.6093 0.704865,0.94257 0.03715,0.0745 0,0.1571 0,0.23565 0,0.29021 -0.05254,0.43614 0.352437,0.70693 0.08307,0.0556 0.269362,-0.0555 0.352432,0 0.08307,0.0556 -0.03715,0.16125 0,0.23577 0.08307,0.16664 0.28872,0.30089 0.352433,0.47129 0.05698,0.1524 -0.105078,0.33077 0,0.47129 0.05254,0.0702 0.234955,0 0.352434,0 0.11748,0.0785 0.299893,0.13025 0.352433,0.23565 0.0743,0.14903 -0.10508,0.33076 0,0.47128 0.05254,0.0703 0.269362,-0.0555 0.352432,0 0.08307,0.0555 -0.06517,0.17029 0,0.23565 0.184318,0.18486 0.52055,0.28643 0.704868,0.47129 0.06516,0.0654 -0.08307,0.18023 0,0.23577 0.08307,0.0555 0.26936,-0.0555 0.352432,0 0.07205,0.0482 -0.06987,0.61351 0,0.70693 0.211463,0.2828 0.845965,0.42415 1.05743,0.70694 0.10508,0.14051 -0.105077,0.33077 0,0.47129 0.73339,0.98074 -0.02435,-0.25194 0.704865,0.23564 0.347678,0.23247 -0.722185,0.47142 0.352435,0.47142 z m -7.076186,-35.13855 c -0.07078,-0.0635 -0.138414,-0.10029 0,0 z m 3.551724,0.26136 0.352432,0 c 0.11748,0 -0.352432,-0.0786 -0.352432,0 z m 3.524462,-4.90087 c 0.02488,0.0672 0.04065,0.13336 0,0.18772 -0.04066,-0.0544 -0.02487,-0.12051 0,-0.18772 z m 0,4.66522 c 0.01655,0.006 0.03661,0.0132 0.05762,0.0217 -0.01918,0.002 -0.03852,0.004 -0.05762,0.007 -0.0191,-0.003 -0.03845,-0.005 -0.05762,-0.007 0.02103,-0.009 0.04105,-0.0163 0.05762,-0.0219 z"
         style="fill:url(#linearGradient4721);fill-opacity:1;stroke:#000000;stroke-width:0;stroke-linecap:butt;stroke-linejoin:miter;stroke-miterlimit:4;stroke-dasharray:none;stroke-opacity:1"
         inkscape:connector-curvature="0" />
      <text
         id="text6107"
         y="176.67215"
         x="84.381218"
         style="font-style:italic;font-variant:normal;font-weight:bold;font-stretch:normal;font-size:1.23472214px;line-height:1.25;font-family:sans-serif;-inkscape-font-specification:'sans-serif Bold Italic';letter-spacing:0px;word-spacing:0px;fill:#ffb908;fill-opacity:1;stroke:none;stroke-width:0;stroke-miterlimit:4;stroke-dasharray:none"
         xml:space="preserve"><tspan
           style="font-style:italic;font-variant:normal;font-weight:bold;font-stretch:normal;font-size:1.23472214px;font-family:sans-serif;-inkscape-font-specification:'sans-serif Bold Italic';fill:#ffb908;fill-opacity:1;stroke-width:0;stroke-miterlimit:4;stroke-dasharray:none"
           y="176.67215"
           x="84.381218"
           id="tspan6105"
           sodipodi:role="line">E</tspan><tspan
           id="tspan6109"
           style="font-style:italic;font-variant:normal;font-weight:bold;font-stretch:normal;font-size:1.23472214px;font-family:sans-serif;-inkscape-font-specification:'sans-serif Bold Italic';fill:#ffb908;fill-opacity:1;stroke-width:0;stroke-miterlimit:4;stroke-dasharray:none"
           y="178.21555"
           x="84.381218"
           sodipodi:role="line">l</tspan><tspan
           id="tspan6111"
           style="font-style:italic;font-variant:normal;font-weight:bold;font-stretch:normal;font-size:1.23472214px;font-family:sans-serif;-inkscape-font-specification:'sans-serif Bold Italic';fill:#ffb908;fill-opacity:1;stroke-width:0;stroke-miterlimit:4;stroke-dasharray:none"
           y="179.75896"
           x="84.381218"
           sodipodi:role="line">e</tspan><tspan
           id="tspan6113"
           style="font-style:italic;font-variant:normal;font-weight:bold;font-stretch:normal;font-size:1.23472214px;font-family:sans-serif;-inkscape-font-specification:'sans-serif Bold Italic';fill:#ffb908;fill-opacity:1;stroke-width:0;stroke-miterlimit:4;stroke-dasharray:none"
           y="181.30235"
           x="84.381218"
           sodipodi:role="line">m</tspan><tspan
           id="tspan6115"
           style="font-style:italic;font-variant:normal;font-weight:bold;font-stretch:normal;font-size:1.23472214px;font-family:sans-serif;-inkscape-font-specification:'sans-serif Bold Italic';fill:#ffb908;fill-opacity:1;stroke-width:0;stroke-miterlimit:4;stroke-dasharray:none"
           y="182.84576"
           x="84.381218"
           sodipodi:role="line">e</tspan><tspan
           id="tspan6117"
           style="font-style:italic;font-variant:normal;font-weight:bold;font-stretch:normal;font-size:1.23472214px;font-family:sans-serif;-inkscape-font-specification:'sans-serif Bold Italic';fill:#ffb908;fill-opacity:1;stroke-width:0;stroke-miterlimit:4;stroke-dasharray:none"
           y="184.38916"
           x="84.381218"
           sodipodi:role="line">n</tspan><tspan
           id="tspan6119"
           style="font-style:italic;font-variant:normal;font-weight:bold;font-stretch:normal;font-size:1.23472214px;font-family:sans-serif;-inkscape-font-specification:'sans-serif Bold Italic';fill:#ffb908;fill-opacity:1;stroke-width:0;stroke-miterlimit:4;stroke-dasharray:none"
           y="185.93257"
           x="84.381218"
           sodipodi:role="line">t</tspan><tspan
           id="tspan6121"
           style="font-style:italic;font-variant:normal;font-weight:bold;font-stretch:normal;font-size:1.23472214px;font-family:sans-serif;-inkscape-font-specification:'sans-serif Bold Italic';fill:#ffb908;fill-opacity:1;stroke-width:0;stroke-miterlimit:4;stroke-dasharray:none"
           y="187.47597"
           x="84.381218"
           sodipodi:role="line">a</tspan><tspan
           id="tspan6123"
           style="font-style:italic;font-variant:normal;font-weight:bold;font-stretch:normal;font-size:1.23472214px;font-family:sans-serif;-inkscape-font-specification:'sans-serif Bold Italic';fill:#ffb908;fill-opacity:1;stroke-width:0;stroke-miterlimit:4;stroke-dasharray:none"
           y="189.01938"
           x="84.381218"
           sodipodi:role="line">l</tspan><tspan
           id="tspan6125"
           style="font-style:italic;font-variant:normal;font-weight:bold;font-stretch:normal;font-size:1.23472214px;font-family:sans-serif;-inkscape-font-specification:'sans-serif Bold Italic';fill:#ffb908;fill-opacity:1;stroke-width:0;stroke-miterlimit:4;stroke-dasharray:none"
           y="190.56277"
           x="84.381218"
           sodipodi:role="line">I</tspan><tspan
           id="tspan6127"
           style="font-style:italic;font-variant:normal;font-weight:bold;font-stretch:normal;font-size:1.23472214px;font-family:sans-serif;-inkscape-font-specification:'sans-serif Bold Italic';fill:#ffb908;fill-opacity:1;stroke-width:0;stroke-miterlimit:4;stroke-dasharray:none"
           y="192.10617"
           x="84.381218"
           sodipodi:role="line">n</tspan><tspan
           id="tspan6129"
           style="font-style:italic;font-variant:normal;font-weight:bold;font-stretch:normal;font-size:1.23472214px;font-family:sans-serif;-inkscape-font-specification:'sans-serif Bold Italic';fill:#ffb908;fill-opacity:1;stroke-width:0;stroke-miterlimit:4;stroke-dasharray:none"
           y="193.64958"
           x="84.381218"
           sodipodi:role="line">d</tspan><tspan
           id="tspan6131"
           style="font-style:italic;font-variant:normal;font-weight:bold;font-stretch:normal;font-size:1.23472214px;font-family:sans-serif;-inkscape-font-specification:'sans-serif Bold Italic';fill:#ffb908;fill-opacity:1;stroke-width:0;stroke-miterlimit:4;stroke-dasharray:none"
           y="195.19298"
           x="84.381218"
           sodipodi:role="line">u</tspan><tspan
           id="tspan6133"
           style="font-style:italic;font-variant:normal;font-weight:bold;font-stretch:normal;font-size:1.23472214px;font-family:sans-serif;-inkscape-font-specification:'sans-serif Bold Italic';fill:#ffb908;fill-opacity:1;stroke-width:0;stroke-miterlimit:4;stroke-dasharray:none"
           y="196.73639"
           x="84.381218"
           sodipodi:role="line">s</tspan><tspan
           id="tspan6135"
           style="font-style:italic;font-variant:normal;font-weight:bold;font-stretch:normal;font-size:1.23472214px;font-family:sans-serif;-inkscape-font-specification:'sans-serif Bold Italic';fill:#ffb908;fill-opacity:1;stroke-width:0;stroke-miterlimit:4;stroke-dasharray:none"
           y="198.27979"
           x="84.381218"
           sodipodi:role="line">t</tspan><tspan
           id="tspan6137"
           style="font-style:italic;font-variant:normal;font-weight:bold;font-stretch:normal;font-size:1.23472214px;font-family:sans-serif;-inkscape-font-specification:'sans-serif Bold Italic';fill:#ffb908;fill-opacity:1;stroke-width:0;stroke-miterlimit:4;stroke-dasharray:none"
           y="199.8232"
           x="84.381218"
           sodipodi:role="line">r</tspan><tspan
           id="tspan6139"
           style="font-style:italic;font-variant:normal;font-weight:bold;font-stretch:normal;font-size:1.23472214px;font-family:sans-serif;-inkscape-font-specification:'sans-serif Bold Italic';fill:#ffb908;fill-opacity:1;stroke-width:0;stroke-miterlimit:4;stroke-dasharray:none"
           y="201.36659"
           x="84.381218"
           sodipodi:role="line">i</tspan><tspan
           id="tspan6141"
           style="font-style:italic;font-variant:normal;font-weight:bold;font-stretch:normal;font-size:1.23472214px;font-family:sans-serif;-inkscape-font-specification:'sans-serif Bold Italic';fill:#ffb908;fill-opacity:1;stroke-width:0;stroke-miterlimit:4;stroke-dasharray:none"
           y="202.90999"
           x="84.381218"
           sodipodi:role="line">e</tspan><tspan
           id="tspan6143"
           style="font-style:italic;font-variant:normal;font-weight:bold;font-stretch:normal;font-size:1.23472214px;font-family:sans-serif;-inkscape-font-specification:'sans-serif Bold Italic';fill:#ffb908;fill-opacity:1;stroke-width:0;stroke-miterlimit:4;stroke-dasharray:none"
           y="204.4534"
           x="84.381218"
           sodipodi:role="line">s</tspan></text>
    </g>
    <flowRoot
       xml:space="preserve"
       id="flowRoot4630"
       style="font-style:normal;font-weight:normal;font-size:40px;line-height:1.25;font-family:sans-serif;letter-spacing:0px;word-spacing:0px;fill:#000000;fill-opacity:1;stroke:none"
       transform="matrix(0.26458333,0,0,0.26458333,115.84937,-66.529902)"><flowRegion
         id="flowRegion4632"><rect
           id="rect4634"
           width="113.5901"
           height="55.338779"
           x="113.5901"
           y="415.73682" /></flowRegion><flowPara
         id="flowPara4636">water</flowPara></flowRoot>  </g>
</svg>
